<svg id="bb6f3724-1c9c-43de-b808-32b364d0d15c" xmlns="http://www.w3.org/2000/svg" viewBox="0 0 918.33 564.14"><defs><style>.cls-1{fill:#e6e6e6}.cls-3{fill:#3f3d56}.cls-4{fill:#f9a826}.cls-5{fill:#ffb6b6}.cls-6{fill:#2f2e41}</style></defs><path class="cls-1" d="M11.86 373.3h639.22a9.89 9.89 0 009.89-9.86V12.86A9.89 9.89 0 00651.08 3H11.86A9.89 9.89 0 002 12.86v350.58a9.89 9.89 0 009.86 9.86z" transform="translate(-1.97 -3)"/><path d="M25.35 359.86h612.24a9.89 9.89 0 009.89-9.86V26.3a9.89 9.89 0 00-9.89-9.86H25.35a9.89 9.89 0 00-9.89 9.86V350a9.89 9.89 0 009.89 9.86z" transform="translate(-1.97 -3)" fill="#fff"/><path class="cls-3" d="M466.27 216.17h115.19a4.79 4.79 0 004.79-4.78V91.8a4.79 4.79 0 00-4.79-4.8H466.27a4.8 4.8 0 00-4.8 4.78v119.61a4.8 4.8 0 004.8 4.78zM581.46 88.93a2.89 2.89 0 012.88 2.87v119.59a2.89 2.89 0 01-2.88 2.87H466.27a2.89 2.89 0 01-2.88-2.87V91.8a2.89 2.89 0 012.88-2.87zM273.88 216.17h115.18a4.79 4.79 0 004.8-4.78V91.8a4.79 4.79 0 00-4.8-4.78H273.88a4.79 4.79 0 00-4.8 4.78v119.59a4.79 4.79 0 004.8 4.78zM389.06 88.93a2.89 2.89 0 012.88 2.87v119.59a2.89 2.89 0 01-2.88 2.87H273.88a2.89 2.89 0 01-2.88-2.87V91.8a2.89 2.89 0 012.88-2.87zM81.48 216.17h115.19a4.8 4.8 0 004.8-4.78V91.8a4.8 4.8 0 00-4.8-4.78H81.48a4.8 4.8 0 00-4.8 4.78v119.59a4.8 4.8 0 004.8 4.78zM196.67 88.93a2.89 2.89 0 012.88 2.87v119.59a2.89 2.89 0 01-2.88 2.87H81.48a2.89 2.89 0 01-2.88-2.87V91.8a2.89 2.89 0 012.88-2.87z" transform="translate(-1.97 -3)"/><path class="cls-1" d="M546.11 289.28a3.25 3.25 0 110-6.5h29.24a3.25 3.25 0 110 6.5h-29.24zM472.38 270.14a3.25 3.25 0 110-6.49h103a3.25 3.25 0 110 6.49zM353.71 289.28a3.25 3.25 0 110-6.5H383a3.25 3.25 0 110 6.5h-29.29zM280 270.14a3.25 3.25 0 110-6.49h103a3.25 3.25 0 110 6.49zM161.32 289.28a3.25 3.25 0 110-6.5h29.23a3.25 3.25 0 110 6.5h-29.23zM87.6 270.14a3.25 3.25 0 110-6.49h103a3.25 3.25 0 110 6.49h-103z" transform="translate(-1.97 -3)"/><path class="cls-4" d="M472.38 251.32a3.25 3.25 0 110-6.49h103a3.25 3.25 0 110 6.49h-103zM280 251.32a3.25 3.25 0 110-6.49h103a3.25 3.25 0 110 6.49H280zM87.6 251.32a3.25 3.25 0 110-6.49h103a3.25 3.25 0 110 6.49z" transform="translate(-1.97 -3)"/><path class="cls-1" d="M490.81 193a3.25 3.25 0 110-6.5h66.1a3.25 3.25 0 110 6.5h-66.1zM490.81 173.86a3.25 3.25 0 110-6.5h66.1a3.25 3.25 0 110 6.5z" transform="translate(-1.97 -3)"/><ellipse class="cls-4" cx="521.89" cy="127.81" rx="20.68" ry="20.61"/><path class="cls-1" d="M298.42 193a3.25 3.25 0 110-6.5h66.1a3.25 3.25 0 010 6.5zM298.42 173.86a3.25 3.25 0 110-6.5h66.1a3.25 3.25 0 110 6.5z" transform="translate(-1.97 -3)"/><ellipse class="cls-4" cx="329.5" cy="127.81" rx="20.68" ry="20.61"/><path class="cls-1" d="M106 193a3.25 3.25 0 110-6.5h66.11a3.25 3.25 0 110 6.5zM106 173.86a3.25 3.25 0 110-6.5h66.11a3.25 3.25 0 110 6.5z" transform="translate(-1.97 -3)"/><ellipse class="cls-4" cx="137.1" cy="127.81" rx="20.68" ry="20.61"/><path class="cls-5" d="M849.08 551.37h-12.24l-5.82-47.04h18.06v47.04z"/><path class="cls-6" d="M854.17 550.39h-24.1a15.34 15.34 0 00-15.35 15.31v.5h39.45z" transform="translate(-1.97 -3)"/><path class="cls-5" d="M807.16 551.37h-12.23l-5.82-47.04h18.06l-.01 47.04z"/><path class="cls-6" d="M812.26 550.39h-24.1a15.34 15.34 0 00-15.35 15.31v.5h39.45z" transform="translate(-1.97 -3)"/><path class="cls-6" d="M760.68 346.45l29.88 184.01 19.96-.99-.5-168.96-49.34-14.06z"/><path class="cls-6" d="M843.21 293.24l-72.51 1-8.05 55.21L812 372.54l21.45 156 18.95-1 6.93-193.09z" transform="translate(-1.97 -3)"/><ellipse cx="797.94" cy="125.6" rx="22.16" ry="22.09" fill="#ffb9b9"/><path fill="#e4e4e4" d="M787.57 160.43l-12.79 16.36 6.04 125.49 47.33-1 8.06-109.43-10.07-28.11-3.65-6.3-34.92 2.99z"/><path class="cls-6" d="M767.68 227l-11.07 42.16 11.07 42.17-18.12 24.07-16.12-76.3s12.09-62.24 13.09-69.27 3-8 3-8l8.05 1z" transform="translate(-1.97 -3)"/><path class="cls-6" d="M846.28 240.04l7.05 13.05 2.01 22.09-4.02 25.09 14.09 23.1 14.1-63.25-15.1-81.32h-6.05l-12.08 61.24z"/><path class="cls-6" d="M819.07 134.32l.53 8.92s6.49-14.64 7.5-29.7-16.1-18.07-26.18-19.08-27.19 6-27.19 14.06 18.12 6 25.17 4 10.1 15.07 10.1 15.07l4 1zM764.66 241l4 38.15-8.06 23.09-5 22.09s0 21.08 20.14 22.08 78.55-1 78.55-1 8.06-1 15.11-17.07-14.1-31.12-14.1-31.12l-6-21.08 2-26.1 14.1-68.27-41.79-21.58L813 263.12l-22.66-99.89-7.55 5.52-32.23 13.05z" transform="translate(-1.97 -3)"/><path class="cls-3" d="M661.14 564.14h257.19v-2.1H660.76l.38 2.1z"/></svg>