<svg id="b7798a4d-5163-44df-883c-b45df1683271" xmlns="http://www.w3.org/2000/svg" viewBox="0 0 744 540.04"><defs><style>.cls-1{fill:#f2f2f2}.cls-2{fill:#f9a826}.cls-3{fill:#ccc}.cls-4{fill:#ffb8b8}.cls-5{fill:#2f2e41}.cls-6{fill:#3f3d56}</style></defs><path class="cls-1" d="M270 404.46l.23 130 325.7-.59c37.11-.07 67.25-29.28 67.18-65.12s-30.31-64.94-67.42-64.87z" transform="translate(-.39 .1)"/><path class="cls-2" d="M262.27 533.46a5 5 0 005 5l334.5-.61a68.5 68.5 0 00-.25-137l-334.5.61a5 5 0 100 10l334.5-.61a58.5 58.5 0 01.21 117l-334.5.61a5 5 0 00-4.96 5z" transform="translate(-.39 .1)"/><path class="cls-3" d="M270.09 434.45l350-.63a1 1 0 000-2l-350 .63a1 1 0 00-1 1 1 1 0 001 1zM270.13 458.45l350-.63a1 1 0 000-2l-350 .63a1 1 0 000 2zM270.18 482.45l350-.63a1 1 0 000-2l-350 .63a1 1 0 100 2zM270.22 506.45l350-.63a1 1 0 000-2l-350 .63a1 1 0 000 2z" transform="translate(-.39 .1)"/><path class="cls-1" d="M18.36 429.38l81.75 101.08 253.25-204.8c28.85-23.34 34-65 11.45-92.86s-64.35-31.55-93.2-8.22z" transform="translate(-.39 .1)"/><path class="cls-3" d="M93.26 534.71a5 5 0 007 .74l260.12-210.33a68.5 68.5 0 00-86.15-106.52L14.14 428.93a5 5 0 006.29 7.78l260.09-210.34a58.5 58.5 0 1173.57 91L94 527.68a5 5 0 00-.74 7.03z" transform="translate(-.39 .1)"/><path class="cls-3" d="M37.23 452.71l272.14-220.09a1 1 0 00.15-1.4 1 1 0 00-1.41-.15L36 451.15a1 1 0 001.25 1.56zM52.32 471.37l272.14-220.09a1 1 0 10-1.26-1.55L51.06 469.81a1 1 0 001.26 1.56zM67.41 490l272.14-220.06a1 1 0 00.15-1.4 1 1 0 00-1.41-.15L66.15 488.47a1 1 0 001.26 1.53zM82.5 508.69l272.14-220.08a1 1 0 00.15-1.41 1 1 0 00-1.4-.15L81.25 507.13a1 1 0 00-.16 1.41 1 1 0 001.41.15zM1.39 539.94l742-1.35a1 1 0 000-2l-742 1.35a1 1 0 100 2z" transform="translate(-.39 .1)"/><path class="cls-4" d="M405.65 390.65l11.43-.02 5.36-44.11-16.87.04.08 44.09z"/><path class="cls-5" d="M425.64 387.24h-22.05v13.88l35.93-.06a13.88 13.88 0 00-13.9-13.86z" transform="translate(-.39 .1)"/><path class="cls-4" d="M522.45 390.44l11.43-.02 5.36-44.11-16.88.04.09 44.09z"/><path class="cls-5" d="M542.43 387h-22v13.88l35.93-.06A13.89 13.89 0 00542.43 387zM484.06 63.33v-5a32.25 32.25 0 00-32.31-32.19 32.24 32.24 0 00-32.19 32.3v5a23.25 23.25 0 0023.29 23.21h18a23.25 23.25 0 0023.21-23.29z" transform="translate(-.39 .1)"/><circle class="cls-4" cx="451.81" cy="63.8" r="24.56" transform="rotate(-89.9 451.685 64.027)"/><path class="cls-4" d="M585.56 148a9.41 9.41 0 00-14.28 1.71l-21.06-3.95-5.52 12.22 29.83 5.15a9.43 9.43 0 0011-15.13z" transform="translate(-.39 .1)"/><path class="cls-3" d="M471 103.79l-.27.42 34.57 22.68 58.29 18.49a3.53 3.53 0 012.42 3.74l-1.25 10.95a3.51 3.51 0 01-3.88 3.08l-.33-.06-54.85-11.65a19.77 19.77 0 01-7.38-3.23l-38.84-27.53a10 10 0 0111.25-16.47z" transform="translate(-.39 .1)"/><path class="cls-5" d="M417.25 378a4.5 4.5 0 004.13-2.71l52.18-129.59a1.5 1.5 0 012-.78 1.53 1.53 0 01.84.94l43 126a4.51 4.51 0 005.63 3l.26-.09 14.33-5.4a4.52 4.52 0 002.89-3.71c6.35-56.21-50.16-197.94-50.73-199.36l-.16-.4-51.26 11.44-.1.12c-20.42 22.35-37 163.14-40.09 191.14a4.48 4.48 0 003 4.74l12.66 4.45a4.44 4.44 0 001.42.21z" transform="translate(-.39 .1)"/><path class="cls-3" d="M461.07 181.84c12.43 0 26.27-2.53 30.52-12.76l.1-.23-.14-.22c-3.37-5.52-7.84-14.93-5.45-16.7 4.7-3.49 7-9.22 6.76-17-.47-17-12.06-32-28.83-37.42a127.53 127.53 0 00-14.27-3.65 24.26 24.26 0 00-20.12 5 24.51 24.51 0 00-9.07 18.88c-.14 18.13 2.7 43.38 17 60.69a4.49 4.49 0 002.63 1.53 122.38 122.38 0 0020.87 1.88z" transform="translate(-.39 .1)"/><path class="cls-4" d="M465.69 181.15a9.55 9.55 0 00-11.69-6.64 9.24 9.24 0 00-1.44.54l-16-14.52-11.12 7.47 22.9 20.19a9.54 9.54 0 0010.82 4.56 9.39 9.39 0 006.56-11.55z" transform="translate(-.39 .1)"/><path class="cls-3" d="M439.11 181.38a4.48 4.48 0 002.85-1l6.29-5.16a4.5 4.5 0 00.63-6.33 4.71 4.71 0 00-.75-.73l-26.48-20.23a1.49 1.49 0 01-.28-2.09l16.28-21.61a13.3 13.3 0 00-.92-17.11 13.26 13.26 0 00-17.89-1.4l-.1.11-17 24.44a15.18 15.18 0 00.4 24.18l34.29 26.08a4.54 4.54 0 002.68.85z" transform="translate(-.39 .1)"/><path class="cls-5" d="M473.56 56.85V44.66l-21.8-9.46L431 44.74v12.18a2 2 0 002 2l38.5-.07a2 2 0 002.06-2z" transform="translate(-.39 .1)"/><path class="cls-5" d="M452.75 27.75c3.18-10.24-3.56-22-13.5-26S417.43.57 409.06 7.28 395.51 24 392.78 34.4s-3.24 21.18-3.73 31.9c-12.2 2.26-20.47 16.75-16.22 28.41s19.9 17.42 30.69 11.3 13.9-22.51 6.08-32.14a26.37 26.37 0 0130.62-41c6.01 2.54 13.55-4.01 12.53-5.12z" transform="translate(-.39 .1)"/><path class="cls-2" d="M590 100.68a104.29 104.29 0 0042.33-9.35 4.46 4.46 0 002.67-4.11l-.06-36.41a4.5 4.5 0 00-4.51-4.49l-81 .14A4.5 4.5 0 00544.9 51l.1 36.39a4.49 4.49 0 002.66 4.1 104.55 104.55 0 0042.34 9.19z" transform="translate(-.39 .1)"/><path class="cls-2" d="M589.94 71.18a4.56 4.56 0 001.75-.35l64.18-27.22a4.5 4.5 0 00-.16-8.35L591.43 11a4.5 4.5 0 00-3.21 0l-63.33 24.5a4.5 4.5 0 00-2.57 5.82 4.43 4.43 0 002.43 2.52l63.42 27a4.69 4.69 0 001.77.34z" transform="translate(-.39 .1)"/><circle class="cls-6" cx="627.46" cy="87.82" r="6" transform="rotate(-89.9 627.335 88.06)"/><path d="M524.53 40L588 67a4 4 0 003.13 0l64.18-27.21a4 4 0 001.91-1.69 4 4 0 01-1.46 5.46 3.68 3.68 0 01-.44.23L591.08 71a4 4 0 01-3.08 0l-63.47-27a4 4 0 01-2.12-5.25c.07-.14.14-.29.22-.42a4 4 0 001.9 1.67z" transform="translate(-.39 .1)" style="isolation:isolate" opacity=".2"/><path class="cls-6" d="M627 87.8a1 1 0 01-1-1l-.06-33.46-33-12a1 1 0 010-2l33 12a2 2 0 011.44.57 2 2 0 01.6 1.43L628 86.8a1 1 0 01-1 1z" transform="translate(-.39 .1)"/></svg>